PathFileType	4	(X/Y/Z)	D:\TRACE\v60_Jaco2_6-2-23\JustBodyDRS_Motion3_8-platform.trc
DataRate	CameraRate	NumFrames	NumMarkers	Units	OrigDataRate	OrigDataStartFrame	OrigNumFrames
100.00	100.00	      54	5	mm	100.00	1	      7000
Frame#	Time	Left_Front			Right_Front			Left_Aft			Right_Aft			Post			
		X1	Y1	Z1	X2	Y2	Z2	X3	Y3	Z3	X4	Y4	Z4	X5	Y5	Z5	

1	0.000	-814.61444	128.43262	-611.92450	755.69421	125.54448	-589.02820	-745.74231	-73.99104	504.24881	668.57971	-92.40161	608.11444	-21.57438	1462.16345	-684.48615	
2	0.010	-814.60333	128.41196	-611.91174	755.68951	125.53593	-589.03748	-745.73108	-73.97978	504.25708	668.55096	-92.40830	608.13373	-21.61973	1462.13257	-684.49078	
3	0.020	-814.58447	128.38803	-611.86975	755.69104	125.52592	-589.09271	-745.73712	-74.00182	504.26968	668.59454	-92.38399	608.14392	-21.57363	1462.11243	-684.53265	
4	0.030	-814.57947	128.39714	-611.94373	755.71680	125.52619	-589.05157	-745.72125	-74.01510	504.26959	668.56958	-92.40348	608.14716	-21.57104	1462.11316	-684.55273	
5	0.040	-814.58105	128.37001	-611.95160	755.76678	125.54164	-589.02802	-745.75287	-73.99010	504.29340	668.55530	-92.39170	608.11200	-21.52188	1462.16553	-684.53674	
6	0.050	-814.59357	128.37978	-611.94958	755.74292	125.54842	-589.02368	-745.73840	-73.98421	504.26013	668.51703	-92.38907	608.11377	-21.55233	1462.14783	-684.52301	
7	0.060	-814.60376	128.40514	-611.95886	755.71783	125.53006	-589.04230	-745.74609	-73.97578	504.26376	668.55176	-92.41219	608.13910	-21.57780	1462.15540	-684.50842	
8	0.070	-814.60736	128.41238	-611.93170	755.71466	125.53857	-589.03448	-745.72766	-73.97993	504.25500	668.52106	-92.40041	608.13922	-21.57527	1462.14490	-684.49896	
9	0.080	-814.56000	128.37650	-611.90924	755.71478	125.54848	-589.05792	-745.74152	-73.97918	504.26773	668.54938	-92.39536	608.13715	-21.58202	1462.17725	-684.52319	
10	0.090	-814.62195	128.41725	-611.91711	755.72375	125.53826	-589.03613	-745.73279	-73.99536	504.26181	668.57056	-92.40709	608.13184	-21.56973	1462.18701	-684.50977	
11	0.100	-814.57642	128.37419	-611.95776	755.72797	125.55484	-589.02356	-745.72961	-73.98081	504.27985	668.54852	-92.40290	608.13843	-21.64128	1462.15845	-684.53699	
12	0.110	-814.59772	128.42821	-611.91632	755.73608	125.55589	-589.04639	-745.74854	-73.98179	504.24609	668.56592	-92.38165	608.14233	-21.58642	1462.17773	-684.54742	
13	0.120	-814.61554	128.41551	-611.93329	755.73633	125.56609	-589.05707	-745.72723	-73.97645	504.26691	668.51099	-92.41965	608.12238	-21.59335	1462.13672	-684.53156	
14	0.130	-814.58228	128.37257	-611.96857	755.71777	125.59338	-589.00024	-745.73669	-73.96900	504.26477	668.53754	-92.38155	608.14612	-21.59052	1462.14148	-684.54688	
15	0.140	-814.61530	128.39661	-611.94269	755.71454	125.55645	-589.06287	-745.74750	-73.98301	504.24551	668.56812	-92.39624	608.15253	-21.54925	1462.16785	-684.51630	
16	0.150	-814.57599	128.37166	-611.91357	755.73706	125.54280	-589.02582	-745.74963	-73.99147	504.28452	668.54382	-92.38564	608.12970	-21.58630	1462.13452	-684.49951	
17	0.160	-814.55981	128.38210	-611.95349	755.71802	125.53539	-589.00354	-745.72461	-73.97340	504.26236	668.57910	-92.38167	608.13849	-21.54439	1462.14038	-684.51923	
18	0.170	-814.57910	128.37039	-611.94153	755.70636	125.56211	-589.02417	-745.70251	-73.99050	504.29700	668.56830	-92.39047	608.13434	-21.65097	1462.13513	-684.51434	
19	0.180	-814.55511	128.35060	-611.95117	755.69611	125.53972	-589.02386	-745.74548	-73.99895	504.28293	668.53436	-92.38874	608.14813	-21.56677	1462.10962	-684.48798	
20	0.190	-814.55237	128.33720	-611.94348	755.75568	125.55077	-589.02136	-745.74585	-73.95927	504.25696	668.57336	-92.39346	608.13049	-21.52600	1462.12573	-684.50049	
21	0.200	-814.59479	128.41579	-611.91235	755.79242	125.56229	-589.00250	-745.74554	-73.95622	504.28601	668.54608	-92.39112	608.15051	-21.58658	1462.12402	-684.55322	
22	0.210	-814.59552	128.38661	-611.94379	755.73474	125.55385	-589.03857	-745.73602	-73.98196	504.25864	668.56647	-92.40236	608.11700	-21.56767	1462.13672	-684.48419	
23	0.220	-814.56873	128.37741	-611.92450	755.73627	125.56535	-589.03906	-745.74390	-73.97615	504.27042	668.56213	-92.39917	608.13116	-21.58363	1462.16125	-684.53357	
24	0.230	-814.56586	128.35609	-611.96057	755.76740	125.55722	-589.03754	-745.74225	-73.96652	504.25742	668.60760	-92.39163	608.12299	-21.59508	1462.12402	-684.48883	
25	0.240	-814.57355	128.38429	-611.94946	755.75360	125.57166	-589.04956	-745.72522	-73.96488	504.25043	668.55975	-92.38213	608.13123	-21.60004	1462.14111	-684.51117	
26	0.250	-814.58038	128.39551	-611.92822	755.75494	125.56248	-589.04279	-745.72839	-73.97885	504.25934	668.59460	-92.37408	608.10925	-21.59273	1462.15369	-684.52698	
27	0.260	-814.59833	128.38124	-611.92462	755.73718	125.54882	-589.02887	-745.75647	-73.96980	504.28796	668.57629	-92.38655	608.11401	-21.59819	1462.09863	-684.50610	
28	0.270	-814.59686	128.38246	-611.94025	755.70801	125.54884	-589.03546	-745.72754	-73.99815	504.24957	668.56909	-92.38451	608.13916	-21.59739	1462.08875	-684.51709	
29	0.280	-814.58423	128.38890	-611.91949	755.72284	125.55447	-589.03595	-745.72522	-74.01358	504.26413	668.50903	-92.40245	608.14301	-21.60008	1462.07971	-684.51044	
30	0.290	-814.58759	128.41325	-611.91809	755.72693	125.52815	-589.04272	-745.72681	-73.96204	504.27136	668.57294	-92.39581	608.12671	-21.62307	1462.12744	-684.50189	
31	0.300	-814.62335	128.41054	-611.95026	755.71777	125.56138	-589.03259	-745.73395	-73.98647	504.25412	668.55298	-92.38801	608.15375	-21.59059	1462.10730	-684.53894	
32	0.310	-814.58252	128.36964	-611.91071	755.72095	125.52042	-589.05182	-745.71368	-73.96587	504.27313	668.54980	-92.39355	608.14081	-21.63324	1462.10535	-684.51776	
33	0.320	-814.55127	128.36314	-611.93658	755.70764	125.54189	-589.06097	-745.71686	-74.00254	504.28134	668.57166	-92.40122	608.14691	-21.53167	1462.12781	-684.47345	
34	0.330	-814.55615	128.36353	-611.93365	755.72845	125.55179	-589.03394	-745.74335	-74.01247	504.27692	668.55225	-92.39726	608.14111	-21.57503	1462.10791	-684.51782	
35	0.340	-814.58514	128.38420	-611.91217	755.74817	125.55333	-589.02423	-745.72235	-74.00487	504.23553	668.53113	-92.38544	608.13037	-21.58881	1462.13110	-684.53510	
36	0.350	-814.58319	128.39204	-611.91418	755.74121	125.56143	-589.02380	-745.71655	-73.99554	504.23599	668.58411	-92.38536	608.14349	-21.55627	1462.14990	-684.50537	
37	0.360	-814.56580	128.43910	-611.90967	755.77429	125.54702	-589.03198	-745.73267	-73.96355	504.26913	668.55316	-92.39812	608.13641	-21.54446	1462.12927	-684.50092	
38	0.370	-814.58984	128.38631	-611.94159	755.73218	125.53677	-589.03497	-745.75098	-73.95343	504.27765	668.50562	-92.38583	608.14911	-21.59209	1462.12976	-684.52112	
39	0.380	-814.56757	128.37065	-611.92828	755.68427	125.53017	-589.05017	-745.73639	-73.98606	504.27023	668.56018	-92.40121	608.14026	-21.60759	1462.09717	-684.53583	
40	0.390	-814.56976	128.35234	-611.91974	755.71021	125.54670	-589.05261	-745.73322	-74.01057	504.27194	668.54755	-92.39455	608.16473	-21.59110	1462.15222	-684.50366	
41	0.400	-814.59814	128.40112	-611.95294	755.73846	125.52838	-589.02588	-745.73340	-73.98752	504.27847	668.55786	-92.40462	608.13263	-21.62865	1462.15662	-684.52563	
42	0.410	-814.55737	128.36749	-611.96948	755.71051	125.56559	-589.03656	-745.72150	-74.00021	504.24496	668.56909	-92.41095	608.14362	-21.55925	1462.16077	-684.53271	
43	0.420	-814.60938	128.41063	-611.93182	755.73602	125.54944	-589.05396	-745.71802	-73.95653	504.22949	668.58008	-92.38488	608.12976	-21.55763	1462.16541	-684.52271	
44	0.430	-814.56873	128.38768	-611.89807	755.70227	125.54163	-589.04236	-745.73553	-74.01095	504.25906	668.51123	-92.38377	608.15466	-21.58640	1462.14819	-684.54248	
45	0.440	-814.55164	128.34634	-611.94031	755.74255	125.54549	-589.03729	-745.74127	-73.98669	504.28967	668.55817	-92.39626	608.15894	-21.58076	1462.12488	-684.53601	
46	0.450	-814.58594	128.39114	-611.92938	755.73865	125.56478	-589.02185	-745.71185	-73.98747	504.25253	668.53729	-92.39481	608.16302	-21.60782	1462.10901	-684.56873	
47	0.460	-814.59082	128.42183	-611.95325	755.73291	125.55341	-589.03912	-745.73468	-73.96992	504.25214	668.59479	-92.39896	608.11865	-21.55467	1462.12964	-684.49463	
48	0.470	-814.59790	128.42807	-611.90930	755.77313	125.54563	-588.99091	-745.72174	-73.98019	504.24799	668.54395	-92.38226	608.13934	-21.56411	1462.15540	-684.53436	
49	0.480	-814.59595	128.41367	-611.92749	755.69330	125.55080	-589.04926	-745.73706	-73.98763	504.27594	668.54321	-92.38219	608.12347	-21.57124	1462.16711	-684.49432	
50	0.490	-814.59064	128.40659	-611.94507	755.72510	125.55637	-589.05029	-745.73584	-73.95196	504.27850	668.48859	-92.41091	608.15039	-21.60791	1462.12146	-684.50970	
51	0.500	-814.58459	128.40286	-611.93005	755.70825	125.54524	-589.03491	-745.72607	-74.01978	504.26678	668.55353	-92.37618	608.14862	-21.61553	1462.13953	-684.51038	
52	0.510	-814.57623	128.39149	-611.93640	755.74084	125.53120	-589.04364	-745.74512	-73.97974	504.25961	668.52240	-92.37992	608.13641	-21.54604	1462.13147	-684.49994	
53	0.520	-814.59613	128.39938	-611.92401	755.76361	125.54465	-589.04498	-745.71130	-73.97701	504.24213	668.60242	-92.37785	608.12775	-21.59316	1462.16431	-684.50372	
54	0.530	-814.59418	128.38225	-611.91760	755.73633	125.55750	-589.04297	-745.72076	-73.97959	504.25308	668.56763	-92.38573	608.13873	-21.57974	1462.12451	-684.51044	
